<?xml version="1.0" encoding="UTF-8" standalone="no"?>
<!DOCTYPE svg PUBLIC "-//W3C//DTD SVG 1.0//EN"
 "http://www.w3.org/TR/2001/REC-SVG-20010904/DTD/svg10.dtd" [
 <!ATTLIST svg xmlns:xlink CDATA #FIXED "http://www.w3.org/1999/xlink">
]>
<!-- Generated by Graphviz version 2.20.2 (Mon Mar 30 10:09:11 UTC 2009)
 -->
<!-- Title: dataflow Pages: 1 -->
<svg width="134pt" height="164pt"
 viewBox="0.00 0.00 134.00 164.00" xmlns="http://www.w3.org/2000/svg" xmlns:xlink="http://www.w3.org/1999/xlink">
<g id="graph0" class="graph" transform="scale(1 1) rotate(0) translate(4 160)">
<title>dataflow</title>
<polygon style="fill:white;stroke:white;" points="-4,4 -4,-160 130,-160 130,4 -4,4"/>
<!-- Mem_0 -->
<g id="node1" class="node"><title>Mem_0</title>
<polygon style="fill:none;stroke:black;" points="54,-59.5 1.42109e-14,-59.5 3.55271e-15,-0.5 54,-0.5 54,-59.5"/>
<text text-anchor="middle" x="27" y="-42.9" style="font-family:Times New Roman;font-size:14.00;">Copy</text>
<text text-anchor="middle" x="27" y="-25.9" style="font-family:Times New Roman;font-size:14.00;">0</text>
<text text-anchor="middle" x="27" y="-8.9" style="font-family:Times New Roman;font-size:14.00;">0.0</text>
</g>
<!-- Mem_1 -->
<g id="node2" class="node"><title>Mem_1</title>
<polygon style="fill:none;stroke:black;" points="90,-155.5 36,-155.5 36,-96.5 90,-96.5 90,-155.5"/>
<text text-anchor="middle" x="63" y="-138.9" style="font-family:Times New Roman;font-size:14.00;">Noop</text>
<text text-anchor="middle" x="63" y="-121.9" style="font-family:Times New Roman;font-size:14.00;">1</text>
<text text-anchor="middle" x="63" y="-104.9" style="font-family:Times New Roman;font-size:14.00;">1.0</text>
</g>
<!-- Mem_1&#45;&gt;Mem_0 -->
<g id="edge2" class="edge"><title>Mem_1&#45;&gt;Mem_0</title>
<path style="fill:none;stroke:black;stroke-dasharray:5,2;" d="M52,-96C48,-88 45,-78 41,-70"/>
<polygon style="fill:black;stroke:black;" points="44.2259,-68.5725 38,-60 37.5212,-70.584 44.2259,-68.5725"/>
</g>
<!-- Mem_2 -->
<g id="node3" class="node"><title>Mem_2</title>
<polygon style="fill:none;stroke:black;" points="126,-59.5 72,-59.5 72,-0.5 126,-0.5 126,-59.5"/>
<text text-anchor="middle" x="99" y="-42.9" style="font-family:Times New Roman;font-size:14.00;">Copy</text>
<text text-anchor="middle" x="99" y="-25.9" style="font-family:Times New Roman;font-size:14.00;">2</text>
<text text-anchor="middle" x="99" y="-8.9" style="font-family:Times New Roman;font-size:14.00;">2.0</text>
</g>
<!-- Mem_1&#45;&gt;Mem_2 -->
<g id="edge4" class="edge"><title>Mem_1&#45;&gt;Mem_2</title>
<path style="fill:none;stroke:black;" d="M74,-96C78,-88 81,-78 85,-70"/>
<polygon style="fill:black;stroke:black;" points="88.4788,-70.584 88,-60 81.7741,-68.5725 88.4788,-70.584"/>
</g>
</g>
</svg>
